<svg width="172" height="60" viewBox="0 0 172 60" fill="none" xmlns="http://www.w3.org/2000/svg">
<g clip-path="url(#clip0_4023_11)">
<path d="M166 1H6C3.23858 1 1 3.23858 1 6V54C1 56.7614 3.23858 59 6 59H166C168.761 59 171 56.7614 171 54V6C171 3.23858 168.761 1 166 1Z" fill="url(#paint0_linear_4023_11)" stroke="url(#paint1_linear_4023_11)" stroke-width="2"/>
<path fill-rule="evenodd" clip-rule="evenodd" d="M6 3C4.34315 3 3 4.34315 3 6V54C3 55.6569 4.34315 57 6 57H166C167.657 57 169 55.6569 169 54V6C169 4.34315 167.657 3 166 3H6ZM2 6C2 3.79086 3.79086 2 6 2H166C168.209 2 170 3.79086 170 6V54C170 56.2091 168.209 58 166 58H6C3.79086 58 2 56.2091 2 54V6Z" fill="#303A4A"/>
<path fill-rule="evenodd" clip-rule="evenodd" d="M6 2C3.79086 2 2 3.79086 2 6V54C2 56.2091 3.79086 58 6 58H166C168.209 58 170 56.2091 170 54V6C170 3.79086 168.209 2 166 2H6ZM1 6C1 3.23858 3.23858 1 6 1H166C168.761 1 171 3.23858 171 6V54C171 56.7614 168.761 59 166 59H6C3.23858 59 1 56.7614 1 54V6Z" fill="#58C9FF" fill-opacity="0.5"/>
<path opacity="0.4" d="M83.6559 3H6C4.34315 3 3 4.34315 3 6V54C3 55.6569 4.34315 57 6 57H83.6559C88.3293 49.0405 91 39.8238 91 30C91 20.1762 88.3293 10.9595 83.6559 3Z" fill="url(#paint2_radial_4023_11)"/>
<rect x="3" y="3" width="166" height="54" rx="3" fill="url(#paint3_linear_4023_11)" fill-opacity="0.8"/>
<g filter="url(#filter0_d_4023_11)">
<path fill-rule="evenodd" clip-rule="evenodd" d="M57.8252 18.5C59.4781 21.9201 60.3447 25.6853 60.3385 29.5171C60.3368 43.5069 48.9954 54.8473 35.0052 54.8473C21.2139 54.8473 9.67188 43.3297 9.67188 29.5139C9.67188 27.3357 9.96047 25.0898 10.524 22.975C10.5345 22.9355 10.5462 22.8963 10.5592 22.8575C10.6499 22.5854 10.7804 22.2488 10.9672 21.9234C11.1336 21.6337 11.4629 21.1404 12.0424 20.8099C12.6866 20.4428 13.3961 20.4392 13.9784 20.6631C14.1828 20.7417 14.3576 20.8419 14.5042 20.946C14.97 20.0379 15.5178 19.1894 16.102 18.4062C16.625 17.7052 17.0023 17.1908 17.33 16.4513C17.6577 15.7115 17.9716 14.6556 18.178 12.9269C18.3307 11.6477 19.6474 10.3714 21.2939 10.9096C23.8357 11.7415 25.453 14.1164 26.3792 16.4716C26.4312 16.6039 26.4816 16.7374 26.5305 16.8723C27.1823 15.9117 28.1153 15.0348 29.4004 14.3579C30.5037 11.5626 32.7834 9.5655 35.4412 8.26832C38.3729 6.83751 41.9188 6.16992 45.4125 6.16992C50.3212 6.16992 54.8319 7.7201 58.0083 10.3142C58.6499 10.8382 58.9021 11.7035 58.6424 12.4902C58.4502 13.0725 58.0069 13.5225 57.4539 13.7328C57.9999 14.186 58.5084 14.6728 58.9745 15.1907C59.5445 15.824 59.6506 16.7489 59.239 17.4949C58.9393 18.0379 58.4132 18.3993 57.8252 18.5Z" fill="#F0F8FF"/>
</g>
<g filter="url(#filter1_d_4023_11)">
<path d="M31.008 15.811H31.012C32.4813 10.6743 38.884 8.16699 45.4086 8.16699C49.9173 8.16699 53.9646 9.59433 56.7393 11.8603C55.0834 11.9384 53.4485 12.2633 51.8886 12.8243C54.1306 13.6577 56.0566 14.9397 57.484 16.5257C56.4071 16.3403 55.3151 16.2577 54.2226 16.279C56.9077 20.1685 58.3422 24.7847 58.3346 29.511C58.3346 42.3977 47.888 52.8443 35.0013 52.8443C22.3133 52.8443 11.668 42.221 11.668 29.511C11.668 27.5037 11.9346 25.431 12.4526 23.487C12.5886 23.079 12.778 22.6877 13.0293 22.5443C13.344 22.365 13.6306 22.8997 13.6766 23.0737C14.0178 24.3516 14.4769 25.5952 15.048 26.7883C14.998 24.1243 16.136 21.6977 17.7013 19.599C18.7453 18.1997 19.7133 16.903 20.16 13.161C20.19 12.9097 20.428 12.729 20.6686 12.8077C24.066 13.9197 25.882 19.577 25.6 24.3077C27.4766 24.5763 27.468 22.6157 27.468 22.6157C26.868 20.7717 27.268 17.3443 31.0013 15.811H31.008Z" fill="url(#paint4_linear_4023_11)"/>
<path opacity="0.9" d="M57.5706 23.5688C58.138 36.4022 47.588 47.4669 34.7233 47.4669C22.68 47.4669 12.8113 38.1582 11.9186 26.3435C11.7594 27.4499 11.6756 28.5658 11.668 29.6835C11.7593 42.3249 22.3786 52.8442 35.0013 52.8442C47.888 52.8442 58.3346 42.3975 58.3346 29.5108C58.3346 27.4575 58.0686 25.4662 57.5706 23.5688Z" fill="url(#paint5_radial_4023_11)"/>
<path style="mix-blend-mode:screen" d="M34.43 17.5117C34.1787 17.067 33.018 16.409 32.5107 16.2943C34.4307 10.1443 44.212 8.25633 50.1987 9.34433C52.69 9.79766 55.7927 11.155 56.7367 11.8603C53.962 9.59433 49.914 8.16699 45.406 8.16699C38.8813 8.16699 32.4787 10.6743 31.0093 15.811H30.9987C27.2653 17.3443 26.8653 20.773 27.4653 22.6163C28.0413 20.417 30.782 17.7143 34.43 17.5117Z" fill="url(#paint6_radial_4023_11)"/>
<path d="M41.2119 13.2642C35.9706 14.2955 34.2579 14.6329 32.5039 16.3002C34.4739 11.0849 39.5026 10.0275 45.4946 12.4049C44.0685 12.6988 42.6409 12.9848 41.2119 13.2642Z" fill="url(#paint7_linear_4023_11)"/>
<path d="M12.9323 22.773C11.5003 28.6357 12.6069 35.5263 19.1123 41.309C17.1756 39.191 14.8109 31.371 20.0289 25.7843C20.3803 25.4077 20.9849 25.6843 21.0043 26.199C21.4343 37.8097 30.8029 44.901 41.6043 43.575C38.2576 43.387 27.1896 39.5103 35.4229 37.977C39.7263 37.175 46.4736 35.9183 46.4736 29.8637C46.4736 20.049 38.8849 17.1797 34.2829 17.6063C31.1336 17.8983 28.3303 19.897 27.4676 22.615C27.7989 23.6863 26.4783 24.4363 25.5976 24.3103C25.8803 19.5803 24.0643 13.9197 20.6663 12.8077C20.4263 12.729 20.1876 12.9097 20.1576 13.161C19.7109 16.903 18.7429 18.1997 17.6996 19.599C16.1336 21.6983 14.9956 24.1243 15.0456 26.7883C14.4746 25.5952 14.0155 24.3517 13.6743 23.0737C13.6363 22.9297 13.4276 22.5277 13.1756 22.509C13.0389 22.499 12.9663 22.6323 12.9323 22.773Z" fill="url(#paint8_radial_4023_11)"/>
<path style="mix-blend-mode:screen" d="M32.5312 38.5709C38.8674 43.7156 51.6092 39.8583 51.6092 27.3496C46.4652 35.1469 39.9127 40.5256 32.5312 38.5709Z" fill="url(#paint9_linear_4023_11)"/>
<path style="mix-blend-mode:screen" d="M20.0313 25.7841C20.0889 25.7197 20.1615 25.6704 20.2427 25.6406C20.3238 25.6108 20.411 25.6015 20.4967 25.6134C15.826 31.3101 19.5933 41.3148 22.1787 43.7728C22.3233 44.1821 19.726 42.0534 19.368 41.5554C17.4013 39.8868 14.5827 31.6181 20.0313 25.7841Z" fill="url(#paint10_linear_4023_11)"/>
<path d="M34.9988 39.0421C41.3361 39.0421 46.4741 34.8501 46.4741 29.6788C46.4741 24.5074 41.3361 20.3154 34.9988 20.3154C29.5921 20.3154 23.5208 23.8328 23.5234 29.8154C23.5261 39.0601 33.2928 44.3788 41.6181 43.5734C40.9928 43.5008 37.0914 43.2934 34.4548 40.3108C34.2168 40.0421 33.8041 39.5728 33.9914 39.2681C34.1781 38.9634 34.6935 39.0421 34.9988 39.0421Z" fill="url(#paint11_linear_4023_11)"/>
<path opacity="0.6" d="M45.2252 25.424L36.1559 34.1027C35.3512 34.6747 34.4946 34.716 33.6492 34.1974L24.7539 25.456C25.0077 25.0482 25.293 24.6608 25.6072 24.2974L26.5406 25.1707C28.8766 27.36 30.7652 29.1287 33.4272 31.4007C34.6286 32.426 35.0019 32.406 36.1806 31.4007C39.2259 28.8007 41.4532 26.834 44.3486 24.248C44.6713 24.6164 44.9648 25.0092 45.2252 25.424Z" fill="white"/>
<mask id="mask0_4023_11" style="mask-type:luminance" maskUnits="userSpaceOnUse" x="23" y="25" width="24" height="19">
<path d="M46.4742 29.6786C46.4742 34.85 41.3362 39.042 34.9989 39.042C34.6929 39.042 34.1789 38.9633 33.9916 39.2686C33.8042 39.5726 34.2169 40.042 34.4549 40.3106C36.9322 43.1133 40.5262 43.466 41.4696 43.5586L41.6182 43.5733C33.2929 44.3786 23.5262 39.06 23.5236 29.8153C23.5149 28.2761 23.9433 26.766 24.7589 25.4606L33.6976 33.5793C34.3336 34.1566 35.4049 34.1566 36.0409 33.5793L45.1489 25.3066C45.9956 26.612 46.4742 28.1 46.4742 29.6786Z" fill="white"/>
</mask>
<g mask="url(#mask0_4023_11)">
<path opacity="0.7" d="M20.8643 18.8794H49.8689V45.1774H20.8643V18.8794Z" fill="url(#paint12_linear_4023_11)"/>
<g filter="url(#filter2_f_4023_11)">
<path fill-rule="evenodd" clip-rule="evenodd" d="M32.3343 33.6342C30.6443 31.8756 25.583 26.0322 25.583 26.0322L25.9743 26.0496L33.8983 31.9676C34.4917 32.3989 35.3383 32.3942 35.9263 31.9576L43.6963 26.0576L44.1083 26.0249C44.1083 26.0249 39.2123 31.7296 37.337 33.6089C35.4617 35.4882 34.0243 35.3929 32.3343 33.6342Z" fill="#458FCD"/>
</g>
</g>
<path d="M36.608 15.6315C37.836 15.2449 37.728 14.0295 37.728 14.0295C37.728 14.0295 37.114 13.3062 35.8974 13.7069C34.7587 14.0822 34.582 14.8935 34.582 14.8935C34.582 14.8935 35.204 16.0735 36.608 15.6315Z" fill="white"/>
</g>
<g filter="url(#filter3_d_4023_11)">
<path d="M74.652 20.3177H78.9676V24.4901C78.4832 25.0154 77.8667 25.4206 77.1474 25.7207C76.4135 26.0209 75.6795 26.171 74.9456 26.171C73.9915 26.171 73.1108 25.9309 72.3034 25.4356C71.4814 24.9553 70.8355 24.31 70.3511 23.4845C69.852 22.659 69.6172 21.7735 69.6172 20.828C69.6172 19.8825 69.852 18.997 70.3511 18.1715C70.8355 17.346 71.4814 16.7007 72.3034 16.2204C73.1108 15.7401 73.9915 15.5 74.9456 15.5C75.6942 15.5 76.4282 15.6501 77.1474 15.9503C77.8667 16.2504 78.4832 16.6556 78.9676 17.1659L77.6612 18.4116C77.3529 18.0364 76.9419 17.7513 76.4428 17.5261C75.9438 17.316 75.4447 17.211 74.9456 17.211C74.3291 17.211 73.7566 17.3761 73.2282 17.7062C72.6851 18.0364 72.2594 18.4717 71.9511 19.027C71.6429 19.5823 71.4814 20.1826 71.4814 20.828C71.4814 21.4734 71.6429 22.0737 71.9511 22.629C72.2594 23.1843 72.6851 23.6346 73.2282 23.9648C73.7566 24.2949 74.3291 24.46 74.9456 24.46C75.3273 24.46 75.7236 24.4 76.1199 24.2649C76.5016 24.1299 76.8685 23.9498 77.1768 23.7096V21.8486H74.652V20.3177Z" fill="white"/>
<path fill-rule="evenodd" clip-rule="evenodd" d="M133.057 45.0296C131.642 45.0296 130.337 44.6736 129.118 43.9394C127.9 43.2275 126.92 42.2708 126.202 41.0471C125.484 39.8234 125.114 38.5108 125.114 37.1091C125.114 35.7075 125.484 34.3948 126.202 33.1712C126.92 31.9697 127.9 31.0131 129.118 30.2789C130.337 29.5669 131.642 29.2109 133.057 29.2109C134.471 29.2109 135.777 29.5669 136.995 30.2789C138.214 31.0131 139.193 31.9697 139.911 33.1712C140.629 34.3948 140.999 35.7075 140.999 37.1091C140.999 38.5108 140.629 39.8234 139.911 41.0471C139.193 42.2708 138.214 43.2275 136.995 43.9394C135.777 44.6736 134.471 45.0296 133.057 45.0296ZM133.057 42.0483C133.883 42.0483 134.645 41.8258 135.363 41.3586C136.081 40.9136 136.647 40.3129 137.06 39.5565C137.474 38.8 137.691 37.9768 137.691 37.1091C137.691 36.2414 137.474 35.4183 137.06 34.6618C136.647 33.9276 136.081 33.3269 135.363 32.8597C134.645 32.4147 133.883 32.1922 133.057 32.1922C132.252 32.1922 131.49 32.4147 130.772 32.8597C130.054 33.3269 129.466 33.9276 129.053 34.6841C128.639 35.4405 128.422 36.2414 128.422 37.1091C128.422 37.9768 128.639 38.8 129.053 39.5565C129.466 40.3129 130.054 40.9136 130.772 41.3586C131.49 41.8258 132.252 42.0483 133.057 42.0483Z" fill="white"/>
<path fill-rule="evenodd" clip-rule="evenodd" d="M80.463 42.1374L81.5074 44.7627H85.0978L79.0268 29.478H75.4147L69.3438 44.7627H72.934L73.9785 42.1374H80.463ZM79.4402 39.5788H75.0012L77.2207 34.0167L79.4402 39.5788Z" fill="white"/>
<path fill-rule="evenodd" clip-rule="evenodd" d="M96.5439 30.457C95.2383 29.8118 93.7586 29.478 92.1049 29.478H86.752V44.7627H92.1049C93.7586 44.7627 95.2383 44.429 96.5439 43.7838C97.8495 43.1386 98.8722 42.2264 99.6121 41.0472C100.33 39.8903 100.7 38.5776 100.7 37.1092C100.7 35.6408 100.33 34.3282 99.6121 33.1713C98.8722 32.0143 97.8495 31.1022 96.5439 30.457ZM95.0425 41.1807C94.3026 41.5812 93.454 41.7814 92.5183 41.7814H89.9507V32.4593H92.5183C93.454 32.4593 94.3026 32.6596 95.0425 33.0378C95.7823 33.4383 96.3698 33.9945 96.7833 34.7064C97.1967 35.4184 97.3925 36.2193 97.3925 37.1092C97.3925 38.0214 97.1967 38.8224 96.7833 39.5121C96.3698 40.224 95.7823 40.7802 95.0425 41.1807Z" fill="white"/>
<path fill-rule="evenodd" clip-rule="evenodd" d="M107.946 29.478C109.599 29.478 111.079 29.8118 112.385 30.457C113.69 31.1022 114.713 32.0143 115.453 33.1713C116.171 34.3282 116.541 35.6408 116.541 37.1092C116.541 38.5776 116.171 39.8903 115.453 41.0472C114.713 42.2264 113.69 43.1386 112.385 43.7838C111.079 44.429 109.599 44.7627 107.946 44.7627H102.593V29.478H107.946ZM108.359 41.7814C109.295 41.7814 110.143 41.5812 110.883 41.1807C111.623 40.7802 112.211 40.224 112.624 39.5121C113.038 38.8224 113.233 38.0214 113.233 37.1092C113.233 36.2193 113.038 35.4184 112.624 34.7064C112.211 33.9945 111.623 33.4383 110.883 33.0378C110.143 32.6596 109.295 32.4593 108.359 32.4593H105.791V41.7814H108.359Z" fill="white"/>
<path d="M117.847 37.2646H123.809V40.0235H117.847V37.2646Z" fill="white"/>
<path d="M146.09 29.478H142.892V44.7627H146.09V34.8844L153.315 44.7627H156.513V29.478H153.315V39.3563L146.09 29.478Z" fill="white"/>
<path d="M82.329 17.3911H88.0831V15.6802H80.4941V25.991H88.0831V24.28H82.329V21.5935H87.54V19.8825H82.329V17.3911Z" fill="white"/>
<path d="M92.3543 17.3911H89.125V15.6802H97.4039V17.3911H94.1892V25.991H92.3543V17.3911Z" fill="white"/>
<path d="M101.926 17.3911H105.155V25.991H106.99V17.3911H110.205V15.6802H101.926V17.3911Z" fill="white"/>
<path d="M118.41 15.6802H120.23V25.991H118.41V21.5935H113.375V25.991H111.54V15.6802H113.375V19.8825H118.41V15.6802Z" fill="white"/>
<path d="M123.93 17.3911H129.684V15.6802H122.095V25.991H129.684V24.28H123.93V21.5935H129.141V19.8825H123.93V17.3911Z" fill="white"/>
</g>
</g>
<defs>
<filter id="filter0_d_4023_11" x="7.67188" y="5.16992" width="54.667" height="52.6775" filterUnits="userSpaceOnUse" color-interpolation-filters="sRGB">
<feFlood flood-opacity="0" result="BackgroundImageFix"/>
<feColorMatrix in="SourceAlpha" type="matrix" values="0 0 0 0 0 0 0 0 0 0 0 0 0 0 0 0 0 0 127 0" result="hardAlpha"/>
<feOffset dy="1"/>
<feGaussianBlur stdDeviation="1"/>
<feComposite in2="hardAlpha" operator="out"/>
<feColorMatrix type="matrix" values="0 0 0 0 0.0352941 0 0 0 0 0.254902 0 0 0 0 0.533333 0 0 0 1 0"/>
<feBlend mode="normal" in2="BackgroundImageFix" result="effect1_dropShadow_4023_11"/>
<feBlend mode="normal" in="SourceGraphic" in2="effect1_dropShadow_4023_11" result="shape"/>
</filter>
<filter id="filter1_d_4023_11" x="9.66797" y="7.16699" width="50.667" height="48.6772" filterUnits="userSpaceOnUse" color-interpolation-filters="sRGB">
<feFlood flood-opacity="0" result="BackgroundImageFix"/>
<feColorMatrix in="SourceAlpha" type="matrix" values="0 0 0 0 0 0 0 0 0 0 0 0 0 0 0 0 0 0 127 0" result="hardAlpha"/>
<feOffset dy="1"/>
<feGaussianBlur stdDeviation="1"/>
<feComposite in2="hardAlpha" operator="out"/>
<feColorMatrix type="matrix" values="0 0 0 0 0.0588235 0 0 0 0 0.364706 0 0 0 0 0.690196 0 0 0 0.3 0"/>
<feBlend mode="normal" in2="BackgroundImageFix" result="effect1_dropShadow_4023_11"/>
<feBlend mode="normal" in="SourceGraphic" in2="effect1_dropShadow_4023_11" result="shape"/>
</filter>
<filter id="filter2_f_4023_11" x="24.5163" y="24.9582" width="20.6587" height="11.0943" filterUnits="userSpaceOnUse" color-interpolation-filters="sRGB">
<feFlood flood-opacity="0" result="BackgroundImageFix"/>
<feBlend mode="normal" in="SourceGraphic" in2="BackgroundImageFix" result="shape"/>
<feGaussianBlur stdDeviation="0.533335" result="effect1_foregroundBlur_4023_11"/>
</filter>
<filter id="filter3_d_4023_11" x="67.3438" y="14.5" width="91.1689" height="33.5295" filterUnits="userSpaceOnUse" color-interpolation-filters="sRGB">
<feFlood flood-opacity="0" result="BackgroundImageFix"/>
<feColorMatrix in="SourceAlpha" type="matrix" values="0 0 0 0 0 0 0 0 0 0 0 0 0 0 0 0 0 0 127 0" result="hardAlpha"/>
<feOffset dy="1"/>
<feGaussianBlur stdDeviation="1"/>
<feComposite in2="hardAlpha" operator="out"/>
<feColorMatrix type="matrix" values="0 0 0 0 0.0352941 0 0 0 0 0.254902 0 0 0 0 0.533333 0 0 0 1 0"/>
<feBlend mode="normal" in2="BackgroundImageFix" result="effect1_dropShadow_4023_11"/>
<feBlend mode="normal" in="SourceGraphic" in2="effect1_dropShadow_4023_11" result="shape"/>
</filter>
<linearGradient id="paint0_linear_4023_11" x1="-4.46155e-07" y1="1.32787e-06" x2="172" y2="60" gradientUnits="userSpaceOnUse">
<stop stop-color="#175FB6"/>
<stop offset="1" stop-color="#19518F"/>
</linearGradient>
<linearGradient id="paint1_linear_4023_11" x1="86" y1="-8.09287e-08" x2="86" y2="60" gradientUnits="userSpaceOnUse">
<stop stop-color="#4BAEFF"/>
<stop offset="0.162589" stop-color="#1373D9"/>
<stop offset="0.905" stop-color="#2493EF"/>
<stop offset="1" stop-color="#4BAEFF"/>
</linearGradient>
<radialGradient id="paint2_radial_4023_11" cx="0" cy="0" r="1" gradientUnits="userSpaceOnUse" gradientTransform="translate(25 30) scale(66 155.612)">
<stop stop-color="#37ADF9"/>
<stop offset="1" stop-color="#37ADF9" stop-opacity="0"/>
</radialGradient>
<linearGradient id="paint3_linear_4023_11" x1="83.5" y1="3" x2="83.5" y2="57" gradientUnits="userSpaceOnUse">
<stop stop-color="#094188" stop-opacity="0.35"/>
<stop offset="0.190856" stop-color="#094188" stop-opacity="0"/>
<stop offset="0.769818" stop-color="#094188" stop-opacity="0"/>
<stop offset="1" stop-color="#094188" stop-opacity="0.66"/>
</linearGradient>
<linearGradient id="paint4_linear_4023_11" x1="19.7666" y1="15.8577" x2="52.66" y2="46.539" gradientUnits="userSpaceOnUse">
<stop stop-color="#1B91F3"/>
<stop offset="1" stop-color="#0B68CB"/>
</linearGradient>
<radialGradient id="paint5_radial_4023_11" cx="0" cy="0" r="1" gradientUnits="userSpaceOnUse" gradientTransform="translate(19.7053 26.4142) rotate(66.5177) scale(19.7307 18.9013)">
<stop offset="0.53" stop-color="#0B4186" stop-opacity="0"/>
<stop offset="1" stop-color="#0B4186" stop-opacity="0.45"/>
</radialGradient>
<radialGradient id="paint6_radial_4023_11" cx="0" cy="0" r="1" gradientUnits="userSpaceOnUse" gradientTransform="translate(35.5987 18.311) rotate(-127.997) scale(4.21802 6.97988)">
<stop stop-color="#EF3ACC" stop-opacity="0"/>
<stop offset="1" stop-color="#EF3ACC" stop-opacity="0.64"/>
</radialGradient>
<linearGradient id="paint7_linear_4023_11" x1="28.9179" y1="23.7115" x2="40.7539" y2="10.5356" gradientUnits="userSpaceOnUse">
<stop stop-color="#0F5DB0"/>
<stop offset="1" stop-color="#0F5DB0" stop-opacity="0"/>
</linearGradient>
<radialGradient id="paint8_radial_4023_11" cx="0" cy="0" r="1" gradientUnits="userSpaceOnUse" gradientTransform="translate(26.1989 42.2243) rotate(-64.2624) scale(30.781 38.0237)">
<stop offset="0.02" stop-color="#094188"/>
<stop offset="0.97" stop-color="#0B4186" stop-opacity="0"/>
</radialGradient>
<linearGradient id="paint9_linear_4023_11" x1="49.6599" y1="33.2516" x2="44.1566" y2="46.7643" gradientUnits="userSpaceOnUse">
<stop stop-color="#E247C4" stop-opacity="0"/>
<stop offset="1" stop-color="#E247C4" stop-opacity="0.64"/>
</linearGradient>
<linearGradient id="paint10_linear_4023_11" x1="15.5353" y1="21.1334" x2="20.384" y2="40.6481" gradientUnits="userSpaceOnUse">
<stop offset="0.1" stop-color="#EF3ACC"/>
<stop offset="1" stop-color="#EF3ACC" stop-opacity="0"/>
</linearGradient>
<linearGradient id="paint11_linear_4023_11" x1="34.9988" y1="23.7441" x2="34.9988" y2="43.4774" gradientUnits="userSpaceOnUse">
<stop stop-color="white"/>
<stop offset="0.91" stop-color="#BEE1FE"/>
<stop offset="1" stop-color="#96CEFD"/>
</linearGradient>
<linearGradient id="paint12_linear_4023_11" x1="35.3669" y1="34.9107" x2="35.3669" y2="43.1774" gradientUnits="userSpaceOnUse">
<stop stop-color="#BCE0FD"/>
<stop offset="1" stop-color="#88CCFC"/>
</linearGradient>
<clipPath id="clip0_4023_11">
<rect width="172" height="60" rx="6" fill="white"/>
</clipPath>
</defs>
</svg>
