<svg width="172" height="60" xmlns="http://www.w3.org/2000/svg" clip-rule="evenodd" xml:space="preserve" version="1.1">
 <defs>
  <linearGradient gradientTransform="matrix(0.44966623187065125,0,0,0.7922049164772034,148.88507080078125,54.73175048828125)" y2="42.053" x2="39.679" y1="201.907" x1="199.533" gradientUnits="userSpaceOnUse" id="svg_41">
   <stop stop-color="#130036" offset="0"/>
   <stop stop-color="#18023b" offset="0.23"/>
   <stop stop-color="#26094a" offset="0.512"/>
   <stop stop-color="#3d1563" offset="0.821"/>
   <stop stop-color="#4e1d75" offset="1"/>
  </linearGradient>
  <linearGradient gradientTransform="matrix(0.44966623187065125,0,0,0.7922049164772034,148.88507080078125,54.73175048828125)" y2="95.311" x2="57.704" y1="95.311" x1="10.243" gradientUnits="userSpaceOnUse" id="svg_40">
   <stop stop-color="#3156a8" offset="0"/>
   <stop stop-color="#3351a4" offset="0.247"/>
   <stop stop-color="#3b4397" offset="0.536"/>
   <stop stop-color="#472c82" offset="0.845"/>
   <stop stop-color="#4e1d75" offset="1"/>
  </linearGradient>
  <radialGradient gradientUnits="userSpaceOnUse" gradientTransform="matrix(0.44966623187065125,0,0,1.1486971378326416,148.88507080078125,14.119366645812988)" r="85.247" cy="113.923" cx="59.073" id="svg_39">
   <stop stop-color="#14cdda" offset="0.165"/>
   <stop stop-color="#2061bd" offset="0.548"/>
   <stop stop-color="#2658ac" offset="0.655"/>
   <stop stop-color="#373f81" offset="0.864"/>
   <stop stop-color="#432d62" offset="1"/>
  </radialGradient>
  <linearGradient gradientTransform="matrix(0.44966623187065125,0,0,0.7922049164772034,148.88507080078125,54.73175048828125)" y2="57.898" x2="191.515" y1="57.898" x1="44.539" gradientUnits="userSpaceOnUse" id="svg_38">
   <stop stop-color="#2061bd" offset="0"/>
   <stop stop-color="#2b51ac" offset="0.185"/>
   <stop stop-color="#442c84" offset="0.683"/>
   <stop stop-color="#4e1d75" offset="0.941"/>
  </linearGradient>
  <linearGradient gradientTransform="matrix(0.44966623187065125,0,0,0.7922049164772034,148.88507080078125,54.73175048828125)" y2="111.082" x2="167.264" y1="23.206" x1="66.174" gradientUnits="userSpaceOnUse" id="svg_37">
   <stop stop-color="#48a8e0" offset="0.02"/>
   <stop stop-color="#2061bd" offset="0.388"/>
   <stop stop-color="#2b51ac" offset="0.497"/>
   <stop stop-color="#442c84" offset="0.789"/>
   <stop stop-color="#4e1d75" offset="0.941"/>
  </linearGradient>
  <linearGradient gradientTransform="matrix(0.44966623187065125,0,0,0.7922049164772034,148.88507080078125,54.73175048828125)" y2="43.631" x2="217.835" y1="337.414" x1="19.676" gradientUnits="userSpaceOnUse" id="svg_36">
   <stop stop-color="#3156a8" offset="0.379"/>
   <stop stop-color="#4e1d75" offset="1"/>
  </linearGradient>
  <linearGradient gradientTransform="matrix(0.44966623187065125,0,0,0.7922049164772034,148.88507080078125,54.73175048828125)" y2="32.542" x2="206.317" y1="278.646" x1="96.745" gradientUnits="userSpaceOnUse" id="svg_35">
   <stop stop-color="#29abe2" offset="0"/>
   <stop stop-color="#385aa6" offset="0.773"/>
   <stop stop-color="#414293" offset="0.858"/>
   <stop stop-color="#4e1d75" offset="1"/>
  </linearGradient>
  <linearGradient gradientTransform="matrix(0.44966623187065125,0,0,0.7922049164772034,148.88507080078125,54.73175048828125)" y2="95.468" x2="54.241" y1="92.034" x1="48.269" gradientUnits="userSpaceOnUse" id="svg_34">
   <stop stop-color="#b0dcd6" offset="0"/>
   <stop stop-color="#53ace0" offset="1"/>
  </linearGradient>
  <radialGradient gradientUnits="userSpaceOnUse" r="51.968" cy="67.999" cx="154.384" id="svg_33">
   <stop stop-color="#fff" offset="0.868"/>
   <stop offset="1"/>
  </radialGradient>
  <linearGradient gradientTransform="matrix(0.44966623187065125,0,0,0.7922049164772034,148.88507080078125,54.73175048828125)" y2="20.555" x2="164.24" y1="23.085" x1="176.214" gradientUnits="userSpaceOnUse" id="svg_31">
   <stop stop-color="#3092b9" offset="0"/>
   <stop stop-color="#258db6" offset="0.22"/>
   <stop stop-color="#1685b1" offset="0.656"/>
   <stop stop-color="#1082af" offset="1"/>
  </linearGradient>
  <linearGradient gradientTransform="matrix(0.44966623187065125,0,0,0.7922049164772034,148.88507080078125,54.73175048828125)" y2="77.544" x2="90.637" y1="38.025" x1="80.784" gradientUnits="userSpaceOnUse" id="svg_29">
   <stop stop-opacity="0" stop-color="#1398d1" offset="0.007"/>
   <stop stop-opacity="0.62" stop-color="#1187c2" offset="0.248"/>
   <stop stop-opacity="0.71" stop-color="#3f6499" offset="0.642"/>
   <stop stop-opacity="0.5" stop-color="#2f4282" offset="1"/>
  </linearGradient>
  <linearGradient gradientTransform="matrix(0.44939640164375305,0.027440281584858894,-0.015575475059449673,0.7917295098304749,159.85623168945312,99.6454086303711)" y2="11.303" x2="43.199" y1="14.373" x1="48.738" gradientUnits="userSpaceOnUse" id="svg_28">
   <stop stop-color="#f9c21b" offset="0"/>
   <stop stop-color="#f3ba1b" offset="0.148"/>
   <stop stop-color="#e3a41b" offset="0.379"/>
   <stop stop-color="#c9801c" offset="0.663"/>
   <stop stop-color="#a44e1c" offset="0.988"/>
   <stop stop-color="#a34c1c" offset="1"/>
  </linearGradient>
  <linearGradient gradientTransform="matrix(0.44966623187065125,0,0,0.7922049164772034,148.88507080078125,54.73175048828125)" y2="47.526" x2="169.43" y1="130.139" x1="206.211" gradientUnits="userSpaceOnUse" id="svg_27">
   <stop stop-color="#409ec3" offset="0"/>
   <stop stop-color="#2061bd" offset="0.62"/>
  </linearGradient>
  <linearGradient gradientTransform="matrix(0.44966623187065125,0,0,0.7922049164772034,148.88507080078125,54.73175048828125)" y2="21.954" x2="150.407" y1="103.061" x1="176.76" gradientUnits="userSpaceOnUse" id="svg_26">
   <stop stop-color="#14b2da" offset="0"/>
   <stop stop-color="#297ccc" offset="0.403"/>
   <stop stop-color="#256fc5" offset="0.508"/>
   <stop stop-color="#2164bf" offset="0.649"/>
   <stop stop-color="#2061bd" offset="0.816"/>
   <stop stop-color="#2061bd" offset="0.984"/>
  </linearGradient>
  <linearGradient gradientTransform="matrix(0.20165228843688965,0,0,0.20528146624565125,9.427825927734375,5.034564971923828)" y2="42.053" x2="39.679" y1="201.907" x1="199.533" gradientUnits="userSpaceOnUse" id="svg_57">
   <stop stop-color="#130036" offset="0"/>
   <stop stop-color="#18023b" offset="0.23"/>
   <stop stop-color="#26094a" offset="0.512"/>
   <stop stop-color="#3d1563" offset="0.821"/>
   <stop stop-color="#4e1d75" offset="1"/>
  </linearGradient>
  <linearGradient gradientTransform="matrix(0.20165228843688965,0,0,0.20528146624565125,9.427825927734375,5.034564971923828)" y2="95.311" x2="57.704" y1="95.311" x1="10.243" gradientUnits="userSpaceOnUse" id="svg_56">
   <stop stop-color="#3156a8" offset="0"/>
   <stop stop-color="#3351a4" offset="0.247"/>
   <stop stop-color="#3b4397" offset="0.536"/>
   <stop stop-color="#472c82" offset="0.845"/>
   <stop stop-color="#4e1d75" offset="1"/>
  </linearGradient>
  <radialGradient gradientUnits="userSpaceOnUse" gradientTransform="matrix(0.20165228843688965,0,0,0.29765814542770386,9.427825927734375,-5.489188194274902)" r="85.247" cy="113.923" cx="59.073" id="svg_55">
   <stop stop-color="#14cdda" offset="0.165"/>
   <stop stop-color="#2061bd" offset="0.548"/>
   <stop stop-color="#2658ac" offset="0.655"/>
   <stop stop-color="#373f81" offset="0.864"/>
   <stop stop-color="#432d62" offset="1"/>
  </radialGradient>
  <linearGradient gradientTransform="matrix(0.20165228843688965,0,0,0.20528146624565125,9.427825927734375,5.034564971923828)" y2="57.898" x2="191.515" y1="57.898" x1="44.539" gradientUnits="userSpaceOnUse" id="svg_54">
   <stop stop-color="#2061bd" offset="0"/>
   <stop stop-color="#2b51ac" offset="0.185"/>
   <stop stop-color="#442c84" offset="0.683"/>
   <stop stop-color="#4e1d75" offset="0.941"/>
  </linearGradient>
  <linearGradient gradientTransform="matrix(0.20165228843688965,0,0,0.20528146624565125,9.427825927734375,5.034564971923828)" y2="111.082" x2="167.264" y1="23.206" x1="66.174" gradientUnits="userSpaceOnUse" id="svg_53">
   <stop stop-color="#48a8e0" offset="0.02"/>
   <stop stop-color="#2061bd" offset="0.388"/>
   <stop stop-color="#2b51ac" offset="0.497"/>
   <stop stop-color="#442c84" offset="0.789"/>
   <stop stop-color="#4e1d75" offset="0.941"/>
  </linearGradient>
  <linearGradient gradientTransform="matrix(0.20165228843688965,0,0,0.20528146624565125,9.427825927734375,5.034564971923828)" y2="43.631" x2="217.835" y1="337.414" x1="19.676" gradientUnits="userSpaceOnUse" id="svg_52">
   <stop stop-color="#3156a8" offset="0.379"/>
   <stop stop-color="#4e1d75" offset="1"/>
  </linearGradient>
  <linearGradient gradientTransform="matrix(0.20165228843688965,0,0,0.20528146624565125,9.427825927734375,5.034564971923828)" y2="32.542" x2="206.317" y1="278.646" x1="96.745" gradientUnits="userSpaceOnUse" id="svg_51">
   <stop stop-color="#29abe2" offset="0"/>
   <stop stop-color="#385aa6" offset="0.773"/>
   <stop stop-color="#414293" offset="0.858"/>
   <stop stop-color="#4e1d75" offset="1"/>
  </linearGradient>
  <linearGradient gradientTransform="matrix(0.20165228843688965,0,0,0.20528146624565125,9.427825927734375,5.034564971923828)" y2="95.468" x2="54.241" y1="92.034" x1="48.269" gradientUnits="userSpaceOnUse" id="svg_50">
   <stop stop-color="#b0dcd6" offset="0"/>
   <stop stop-color="#53ace0" offset="1"/>
  </linearGradient>
  <radialGradient gradientUnits="userSpaceOnUse" r="51.968" cy="67.999" cx="154.384" id="svg_49">
   <stop stop-color="#fff" offset="0.868"/>
   <stop offset="1"/>
  </radialGradient>
  <linearGradient gradientTransform="matrix(0.20165228843688965,0,0,0.20528146624565125,9.427825927734375,5.034564971923828)" y2="20.555" x2="164.24" y1="23.085" x1="176.214" gradientUnits="userSpaceOnUse" id="svg_47">
   <stop stop-color="#3092b9" offset="0"/>
   <stop stop-color="#258db6" offset="0.22"/>
   <stop stop-color="#1685b1" offset="0.656"/>
   <stop stop-color="#1082af" offset="1"/>
  </linearGradient>
  <linearGradient gradientTransform="matrix(0.20165228843688965,0,0,0.20528146624565125,9.427825927734375,5.034564971923828)" y2="77.544" x2="90.637" y1="38.025" x1="80.784" gradientUnits="userSpaceOnUse" id="svg_45">
   <stop stop-opacity="0" stop-color="#1398d1" offset="0.007"/>
   <stop stop-opacity="0.62" stop-color="#1187c2" offset="0.248"/>
   <stop stop-opacity="0.71" stop-color="#3f6499" offset="0.642"/>
   <stop stop-opacity="0.5" stop-color="#2f4282" offset="1"/>
  </linearGradient>
  <linearGradient gradientTransform="matrix(0.20153126120567322,0.007110510487109423,-0.006984802428632975,0.2051583081483841,14.347829818725586,16.67289924621582)" y2="11.303" x2="43.199" y1="14.373" x1="48.738" gradientUnits="userSpaceOnUse" id="svg_44">
   <stop stop-color="#f9c21b" offset="0"/>
   <stop stop-color="#f3ba1b" offset="0.148"/>
   <stop stop-color="#e3a41b" offset="0.379"/>
   <stop stop-color="#c9801c" offset="0.663"/>
   <stop stop-color="#a44e1c" offset="0.988"/>
   <stop stop-color="#a34c1c" offset="1"/>
  </linearGradient>
  <linearGradient gradientTransform="matrix(0.20165228843688965,0,0,0.20528146624565125,9.427825927734375,5.034564971923828)" y2="47.526" x2="169.43" y1="130.139" x1="206.211" gradientUnits="userSpaceOnUse" id="svg_43">
   <stop stop-color="#409ec3" offset="0"/>
   <stop stop-color="#2061bd" offset="0.62"/>
  </linearGradient>
  <linearGradient gradientTransform="matrix(0.20165228843688965,0,0,0.20528146624565125,9.427825927734375,5.034564971923828)" y2="21.954" x2="150.407" y1="103.061" x1="176.76" gradientUnits="userSpaceOnUse" id="svg_42">
   <stop stop-color="#14b2da" offset="0"/>
   <stop stop-color="#297ccc" offset="0.403"/>
   <stop stop-color="#256fc5" offset="0.508"/>
   <stop stop-color="#2164bf" offset="0.649"/>
   <stop stop-color="#2061bd" offset="0.816"/>
   <stop stop-color="#2061bd" offset="0.984"/>
  </linearGradient>
 </defs>
 <g>
  <title>Layer 1</title>
  <g transform="matrix(1.02994,0,0,1.09091,-4.11976,-4.36364)" id="background">
   <path id="svg_1" fill="rgb(16,154,214)" d="m171,6.75c0,-1.518 -1.305,-2.75 -2.913,-2.75l-161.174,0c-1.608,0 -2.913,1.232 -2.913,2.75l0,49.5c0,1.518 1.305,2.75 2.913,2.75l161.174,0c1.608,0 2.913,-1.232 2.913,-2.75l0,-49.5z"/>
  </g>
  <g transform="matrix(1.03912,0,0,1.06245,-1.85987,-7.58422)" id="add-on">
   <g id="svg_2" transform="matrix(20.9407,0,0,20.9407,68,49)">
    <path id="svg_3" fill="white" fill-rule="nonzero" d="m0.584,0l-0.048,-0.118l-0.298,0l-0.048,0.118l-0.165,0l0.279,-0.687l0.166,0l0.279,0.687l-0.165,0zm-0.299,-0.233l0.204,0l-0.102,-0.25l-0.102,0.25z"/>
   </g>
   <g id="svg_4" transform="matrix(20.9407,0,0,20.9407,83.7893,49)">
    <path id="svg_5" fill="white" fill-rule="nonzero" d="m0.317,-0.687c0.076,0 0.144,0.015 0.204,0.044c0.06,0.029 0.107,0.07 0.141,0.122c0.033,0.052 0.05,0.111 0.05,0.177c0,0.066 -0.017,0.125 -0.05,0.177c-0.034,0.053 -0.081,0.094 -0.141,0.123c-0.06,0.029 -0.128,0.044 -0.204,0.044l-0.246,0l0,-0.687l0.246,0zm0.019,0.553c0.043,0 0.082,-0.009 0.116,-0.027c0.034,-0.018 0.061,-0.043 0.08,-0.075c0.019,-0.031 0.028,-0.067 0.028,-0.108c0,-0.04 -0.009,-0.076 -0.028,-0.108c-0.019,-0.032 -0.046,-0.057 -0.08,-0.075c-0.034,-0.017 -0.073,-0.026 -0.116,-0.026l-0.118,0l0,0.419l0.118,0z"/>
   </g>
   <g id="svg_6" transform="matrix(20.9407,0,0,20.9407,99.0341,49)">
    <path id="svg_7" fill="white" fill-rule="nonzero" d="m0.317,-0.687c0.076,0 0.144,0.015 0.204,0.044c0.06,0.029 0.107,0.07 0.141,0.122c0.033,0.052 0.05,0.111 0.05,0.177c0,0.066 -0.017,0.125 -0.05,0.177c-0.034,0.053 -0.081,0.094 -0.141,0.123c-0.06,0.029 -0.128,0.044 -0.204,0.044l-0.246,0l0,-0.687l0.246,0zm0.019,0.553c0.043,0 0.082,-0.009 0.116,-0.027c0.034,-0.018 0.061,-0.043 0.08,-0.075c0.019,-0.031 0.028,-0.067 0.028,-0.108c0,-0.04 -0.009,-0.076 -0.028,-0.108c-0.019,-0.032 -0.046,-0.057 -0.08,-0.075c-0.034,-0.017 -0.073,-0.026 -0.116,-0.026l-0.118,0l0,0.419l0.118,0z"/>
   </g>
   <g id="svg_8" transform="matrix(20.9407,0,0,20.9407,114.279,49)">
    <rect id="svg_9" fill="white" fill-rule="nonzero" height="0.124" width="0.274" y="-0.337" x="0.044"/>
   </g>
   <g id="svg_10" transform="matrix(20.9407,0,0,20.9407,121.441,49)">
    <path id="svg_11" fill="white" fill-rule="nonzero" d="m0.401,0.012c-0.065,0 -0.125,-0.016 -0.181,-0.049c-0.056,-0.032 -0.101,-0.075 -0.134,-0.13c-0.033,-0.055 -0.05,-0.114 -0.05,-0.177c0,-0.063 0.017,-0.122 0.05,-0.177c0.033,-0.054 0.078,-0.097 0.134,-0.13c0.056,-0.032 0.116,-0.048 0.181,-0.048c0.065,0 0.125,0.016 0.181,0.048c0.056,0.033 0.101,0.076 0.134,0.13c0.033,0.055 0.05,0.114 0.05,0.177c0,0.063 -0.017,0.122 -0.05,0.177c-0.033,0.055 -0.078,0.098 -0.134,0.13c-0.056,0.033 -0.116,0.049 -0.181,0.049zm0,-0.134c0.038,0 0.073,-0.01 0.106,-0.031c0.033,-0.02 0.059,-0.047 0.078,-0.081c0.019,-0.034 0.029,-0.071 0.029,-0.11c0,-0.039 -0.01,-0.076 -0.029,-0.11c-0.019,-0.033 -0.045,-0.06 -0.078,-0.081c-0.033,-0.02 -0.068,-0.03 -0.106,-0.03c-0.037,0 -0.072,0.01 -0.105,0.03c-0.033,0.021 -0.06,0.048 -0.079,0.082c-0.019,0.034 -0.029,0.07 -0.029,0.109c0,0.039 0.01,0.076 0.029,0.11c0.019,0.034 0.046,0.061 0.079,0.081c0.033,0.021 0.068,0.031 0.105,0.031z"/>
   </g>
   <g id="svg_12" transform="matrix(20.9407,0,0,20.9407,137.816,49)">
    <path id="svg_13" fill="white" fill-rule="nonzero" d="m0.071,-0.687l0.147,0l0.332,0.444l0,-0.444l0.147,0l0,0.687l-0.147,0l-0.332,-0.444l0,0.444l-0.147,0l0,-0.687z"/>
   </g>
  </g>
  <g transform="matrix(0.808814,0,0,0.826975,13.1944,3.37585)" id="get-the">
   <g id="svg_14" transform="matrix(18.1486,0,0,18.1486,69,27)">
    <path id="svg_15" fill="white" fill-rule="nonzero" d="m0.385,-0.378l0.294,0l0,0.278c-0.033,0.035 -0.075,0.062 -0.124,0.082c-0.05,0.02 -0.1,0.03 -0.15,0.03c-0.065,0 -0.125,-0.016 -0.18,-0.049c-0.056,-0.032 -0.1,-0.075 -0.133,-0.13c-0.034,-0.055 -0.05,-0.114 -0.05,-0.177c0,-0.063 0.016,-0.122 0.05,-0.177c0.033,-0.055 0.077,-0.098 0.133,-0.13c0.055,-0.032 0.115,-0.048 0.18,-0.048c0.051,0 0.101,0.01 0.15,0.03c0.049,0.02 0.091,0.047 0.124,0.081l-0.089,0.083c-0.021,-0.025 -0.049,-0.044 -0.083,-0.059c-0.034,-0.014 -0.068,-0.021 -0.102,-0.021c-0.042,0 -0.081,0.011 -0.117,0.033c-0.037,0.022 -0.066,0.051 -0.087,0.088c-0.021,0.037 -0.032,0.077 -0.032,0.12c0,0.043 0.011,0.083 0.032,0.12c0.021,0.037 0.05,0.067 0.087,0.089c0.036,0.022 0.075,0.033 0.117,0.033c0.026,0 0.053,-0.004 0.08,-0.013c0.026,-0.009 0.051,-0.021 0.072,-0.037l0,-0.124l-0.172,0l0,-0.102z"/>
   </g>
   <g id="svg_16" transform="matrix(18.1486,0,0,18.1486,81.8855,27)">
    <path id="svg_17" fill="white" fill-rule="nonzero" d="m0.59,-0.573l-0.392,0l0,0.166l0.355,0l0,0.114l-0.355,0l0,0.179l0.392,0l0,0.114l-0.517,0l0,-0.687l0.517,0l0,0.114z"/>
   </g>
   <g id="svg_18" transform="matrix(18.1486,0,0,18.1486,93.2102,27)">
    <path id="svg_19" fill="white" fill-rule="nonzero" d="m0.257,-0.573l-0.22,0l0,-0.114l0.564,0l0,0.114l-0.219,0l0,0.573l-0.125,0l0,-0.573z"/>
   </g>
   <g id="svg_20" transform="matrix(18.1486,0,0,18.1486,109.036,27)">
    <path id="svg_21" fill="white" fill-rule="nonzero" d="m0.257,-0.573l-0.22,0l0,-0.114l0.564,0l0,0.114l-0.219,0l0,0.573l-0.125,0l0,-0.573z"/>
   </g>
   <g id="svg_22" transform="matrix(18.1486,0,0,18.1486,120.27,27)">
    <path id="svg_23" fill="white" fill-rule="nonzero" d="m0.541,-0.687l0.124,0l0,0.687l-0.124,0l0,-0.293l-0.343,0l0,0.293l-0.125,0l0,-0.687l0.125,0l0,0.28l0.343,0l0,-0.28z"/>
   </g>
   <g id="svg_24" transform="matrix(18.1486,0,0,18.1486,133.319,27)">
    <path id="svg_25" fill="white" fill-rule="nonzero" d="m0.59,-0.573l-0.392,0l0,0.166l0.355,0l0,0.114l-0.355,0l0,0.179l0.392,0l0,0.114l-0.517,0l0,-0.687l0.517,0l0,0.114z"/>
   </g>
  </g>
  <g>
   <path fill="url(#svg_41)" d="m233.82117,82.84869c-6.52061,-7.50376 -14.85967,-9.93267 -19.462,-10.78112c-4.92564,-0.90707 -9.20377,-0.74705 -12.96658,0.22578c-0.31881,-0.00713 -0.63583,-0.02931 -0.95644,-0.02931c-0.24462,0 -0.48564,0.01822 -0.73161,0.02297c0.10117,-0.21786 0.17132,-0.35253 0.17132,-0.35253s-0.19785,0.05466 -0.58636,0.36441c-1.22174,0.03486 -2.43764,0.10932 -3.63555,0.25351c1.66871,-3.22269 3.0357,-4.91167 3.0357,-4.91167s-1.6224,0.41828 -4.583,5.14616c-1.40835,0.22816 -2.79737,0.53078 -4.16301,0.90707c3.11079,-7.41662 6.36503,-10.53949 6.36503,-10.53949s-3.94447,-1.41488 -10.12064,9.51913a27.2147,47.94583 0 0 0 -1.45962,2.82976c-18.00059,7.67409 -30.88353,28.15338 -30.88353,52.22136c0,4.71996 -0.82244,9.91128 0.0643,15.09467c-0.35434,8.28092 0.4002,30.87619 0.4002,30.87619s4.87303,46.46203 23.61197,54.54014c0.29768,0.12517 -3.91524,-11.58204 -5.77866,-25.70071c3.62836,6.50242 7.95235,11.64462 12.80559,12.53585c0.59581,0.10853 -2.77219,-6.84465 -5.722,-15.23727l42.58249,25.27609c22.27152,-16.85337 19.67874,-15.33471 24.46049,-24.45933c10.53478,-20.09032 12.00969,-31.49015 9.35576,-65.14697c-1.79552,-22.71964 -11.3136,-45.22143 -21.80387,-52.65469z"/>
   <path d="m159.08664,104.0671l-6.35873,63.69644l3.52583,19.24583l70.38356,41.22714l13.05291,-97.7771l-80.60357,-26.39231z" fill="#fbfbfb"/>
   <path d="m159.28494,106.23299c0.35299,1.33803 0.24912,1.65492 0.02923,1.65492c-0.09893,0 -0.22124,-0.06417 -0.3359,-0.12754c-0.11466,-0.06417 -0.22214,-0.12754 -0.29138,-0.12754c-0.19471,0 -0.08499,0.50622 1.01759,2.947c1.55944,3.49045 24.46139,64.40071 25.71281,64.40071a0.05621,0.09903 0 0 0 0.01799,-0.00475c10.66159,-6.69255 56.00278,-34.11076 56.00278,-34.11076l-4.63876,-11.90605l-77.51436,-22.72598" fill="#999"/>
   <path fill="#f8f8f8" d="m159.95,104.73652s0.34175,3.11495 1.92502,6.56263c1.57383,3.47936 22.71264,59.86772 23.7734,59.37101c13.84747,-6.47707 64.08868,-40.9364 64.08868,-40.9364l-89.7871,-24.99723z"/>
   <path d="m224.12367,226.76776l-66.8892,-39.18087l0.23652,2.75291l67.39687,39.47874l-0.7442,-3.05078z" fill="#999"/>
   <path fill="url(#svg_40)" d="m174.8326,102.10164s-24.33684,12.55645 -13.16982,56.27269c0,0 -5.12035,-8.25953 -8.16909,-18.82041c-0.13715,-0.47295 5.08168,-33.13714 5.08168,-33.13714l16.25723,-4.31514z"/>
   <path fill="url(#svg_39)" d="m161.66278,158.37434c-2.11658,-0.06417 -5.51695,-3.1403 -6.61999,-6.86446c-1.37868,40.48009 7.99596,64.12027 22.87902,76.72742c-4.86314,-0.98233 -29.03675,-23.4564 -29.03675,-77.53785c0,-45.98512 20.71163,-87.08867 53.12447,-88.97174c0.19875,2.57783 -16.06927,9.04223 -16.58954,12.08192c-0.8076,4.73105 -2.66382,9.88117 -4.22956,14.00935c-2.12153,5.59376 2.94846,10.37709 -0.77747,11.88387c-5.60644,2.2665 -13.08439,1.01165 -18.59865,13.64098c-8.28915,18.98519 -2.7578,40.7027 -0.15154,45.03051z"/>
   <path fill="url(#svg_38)" d="m210.51092,63.20755c-20.99132,-2.83768 -31.79455,11.95992 -38.72975,29.16661c-2.52578,6.26317 -2.24923,12.01458 -1.37958,18.96301c0.37367,2.96602 0.75139,4.38723 0.29633,7.41108c-0.25091,1.66838 -0.20909,3.22586 -0.52071,4.20978c-0.43123,1.36022 -0.98027,2.84718 -1.16419,5.28955c-0.45956,6.09919 0.76578,8.04167 1.53156,10.09348c1.09089,-1.90842 3.22186,-6.40022 7.06426,-9.08342c3.8424,-2.6832 6.37042,-6.71552 11.1859,-11.04413c6.57952,-5.91223 14.29129,3.05712 28.91354,-5.38382c4.49936,-2.59764 14.83988,-29.5841 17.29461,-30.6203c-6.83628,-13.31855 -18.46644,-18.18823 -24.49197,-19.00183z"/>
   <path fill="#3f6499" d="m196.64277,54.7571s-3.74797,3.18942 -5.38026,8.95271c3.76865,-3.34707 5.95628,-5.17547 6.99051,-5.39333c0,0 -0.99061,0.84528 -2.2191,5.44245c2.17189,-1.22554 2.91968,-1.99794 3.51594,-2.00982c0,0 -0.17312,0.48324 -0.3314,5.0717c-3.33517,-1.90446 -9.75461,0.31451 -13.16937,4.08223c-1.15834,-10.88093 10.59369,-16.14593 10.59369,-16.14593z"/>
   <path fill="url(#svg_37)" d="m211.55909,61.56848c-6.43427,-1.46875 -11.81273,-1.17959 -16.38539,0.37234c1.43803,-2.42811 3.1018,-3.62434 3.1018,-3.62434c-2.15615,0.33589 -4.84785,2.8155 -7.15734,5.44086a32.25771,56.8304 0 0 0 -3.32303,2.21738c0.64302,-1.49331 1.39127,-3.08881 2.12242,-4.31356c2.71553,-4.54963 6.74769,-6.90407 6.74769,-6.90407c-3.44175,-0.44522 -14.9595,4.74927 -21.8902,29.48032c-1.13586,2.43761 -2.19572,4.9394 -3.20567,7.44514c-2.60716,6.46756 -2.32118,12.40434 -1.42184,19.57934c0.38312,3.06346 0.45371,7.95374 0.07554,11.11384c-0.07554,0.63297 -1.06256,2.26808 -1.31572,6.6767c-0.2707,4.67797 0.67675,6.97457 1.6107,8.87507c3.31854,-8.54948 6.59256,-10.244 6.59256,-10.244c4.64505,-3.35261 6.57862,-6.93338 11.55103,-11.40221c6.79356,-6.10711 30.54987,13.82398 45.64652,5.10814c4.64595,-2.68082 -1.78832,-37.51803 0.74779,-38.58751c-7.05931,-13.75268 -17.30945,-19.82097 -23.49686,-21.23347z"/>
   <path fill="url(#svg_36)" d="m258.68277,136.55701c-3.72144,-34.25256 -21.62715,-65.41394 -36.02591,-67.14095c-6.39021,-0.76685 -4.42786,5.00594 -8.4263,7.20431c-17.23121,9.47398 -17.49471,15.00515 -17.49471,15.00515c36.53628,3.02543 37.09027,66.59591 27.30553,82.67926c2.75331,-1.13127 5.73864,-7.06171 8.48026,-16.37171c-0.32916,3.90636 -0.61155,8.69841 -1.02254,14.045c-1.25367,16.31546 0.37008,50.39532 -26.24072,73.2037c0,0 14.5566,-2.09617 21.77509,-16.41211c-2.93542,11.89258 -10.99029,18.31657 -10.99029,18.31657c5.9275,-1.52737 21.49854,-9.62212 31.41728,-31.47589c11.22637,-24.7366 14.60246,-47.94345 11.22232,-79.05334z"/>
   <path fill="url(#svg_35)" d="m223.07684,199.08812s11.86939,-5.84647 15.6947,-17.13777c-0.46406,13.16565 -7.24277,26.6672 -7.24277,26.6672s9.90974,-3.53323 14.13571,-15.81875c-0.55039,11.08612 -8.17988,26.06909 -8.17988,26.06909c7.79991,-2.46613 27.39816,-24.27712 21.19862,-82.31088c-3.66118,-34.27237 -21.62715,-65.41394 -36.02591,-67.14095c-6.39021,-0.76685 -4.42786,5.00594 -8.4263,7.20431c-17.23121,9.47398 -17.49471,15.00515 -17.49471,15.00515c36.53628,3.02543 46.24547,36.71394 27.30553,81.78011c2.75331,-1.13206 3.85724,-3.79783 5.9257,-8.1605c-0.0009,0 0.9371,17.25422 -6.89069,33.84299z"/>
   <path fill="url(#svg_34)" d="m176.13888,122.51835s-2.12197,2.61507 -3.65848,1.94882c-1.8189,-0.78666 -2.12692,-3.8921 -2.12692,-3.8921c-0.04002,0.63614 -0.08634,1.2501 -0.15334,1.80068c-0.07554,0.63297 -1.06256,2.26808 -1.31572,6.6767c-0.2707,4.67797 0.72621,7.38731 1.66017,9.28781c3.31899,-8.54948 6.54354,-10.65674 6.54354,-10.65674c-1.26311,-0.77795 -0.94925,-5.16518 -0.94925,-5.16518z"/>
   <defs transform="translate(50.4544, 95.6816) translate(-37.4785) translate(0, -91.4043) translate(259.934, 247.086) scale(0.449666, 0.792205) translate(-259.934, -247.086)">
    <filter height="6.629" width="14.927" y="18.355" x="162.68" filterUnits="userSpaceOnUse" id="svg_32"/>
   </defs>
   <mask id="svg_30" height="6.629" width="14.927" y="18.355" x="162.68" maskUnits="userSpaceOnUse">
    <g filter="url(#svg_32)">
     <path d="m91.295,-7.218l100.015,0l0,93.339l-100.015,0l0,-93.339z" fill="url(#svg_33)"/>
    </g>
   </mask>
   <g mask="url(#svg_30)" opacity="0.6">
    <g opacity="0.2">
     <path fill="url(#svg_31)" d="m222.41134,69.33526c0.49733,-0.22736 2.52757,0.16161 3.85993,1.21445c1.33281,1.05284 3.63016,2.91452 1.79237,3.72416c-1.83824,0.80963 -2.89495,-0.48562 -3.81407,-1.86247s-3.07886,-2.50971 -1.83824,-3.07613z"/>
    </g>
   </g>
   <path fill="url(#svg_29)" d="m176.33764,122.00658s11.64096,-33.79705 22.16495,-42.9177c0.97712,-0.86588 -14.57143,7.28116 -20.82854,19.44863c-3.71919,7.23204 -1.74965,21.39112 -1.33641,23.46907z"/>
   <path fill="#f2f2f2" opacity="0.1" d="m176.33764,122.00658l0.03372,-0.03565c3.01007,-3.27656 8.16864,-5.16359 9.8315,-11.10275c6.4019,-22.87016 12.30017,-31.7793 12.30017,-31.7793c-10.52444,9.12066 -22.1654,42.9177 -22.1654,42.9177z"/>
   <path fill="#2f4282" d="m177.44427,115.82501s-2.09814,-5.67139 0.92316,-10.84291c1.59452,-2.72518 4.01057,-1.21128 4.28982,-0.72091c1.18892,2.07716 0.44157,6.46122 -0.62863,8.94241c-0.6048,1.39745 -2.36479,3.57284 -4.58435,2.62141z"/>
   <path fill="url(#svg_28)" d="m178.64712,115.47327s-1.44972,-3.92062 0.63943,-7.49347c1.09988,-1.88228 2.77039,-0.83657 2.9642,-0.49909c0.82109,1.43548 0.30397,4.46566 -0.43528,6.1792c-0.41774,0.96887 -1.63454,2.47089 -3.16835,1.81336z"/>
   <path d="m181.54117,111.28964c-0.03238,1.56698 -0.78512,2.79015 -1.68085,2.73628c-0.89753,-0.05466 -1.59991,-1.36735 -1.56799,-2.93433c0.03193,-1.56619 0.78422,-2.78935 1.6822,-2.73548c0.89574,0.05466 1.59766,1.36814 1.56664,2.93353z"/>
   <circle fill="#fff" r="0.51082" cy="110.41346" cx="178.88904"/>
   <path fill="url(#svg_27)" d="m251.63605,106.23299c-7.96854,-21.37052 -14.28185,-26.80108 -14.28185,-26.80108s0.29003,15.56683 4.7143,23.07534c0.50542,0.85796 -5.29437,-6.67987 -5.29437,-6.67987s-1.24018,7.19005 1.60171,15.45592c-0.82559,-1.93219 -1.37193,-2.66419 -1.37193,-2.66419s-5.35463,4.35 -6.9352,10.38501c-0.81614,-2.71409 -1.42814,-4.31276 -1.42814,-4.31276s-3.70345,13.02147 -3.23805,28.11931c0.75724,24.54885 -2.60941,33.59266 -2.60941,33.59266s9.01896,-6.09602 13.3443,-25.72131c1.78697,8.34429 -0.05441,17.12668 -0.05441,17.12668s7.28729,-9.59281 8.85438,-27.07756c1.73706,4.93544 1.22624,14.78571 1.22624,14.78571s4.65135,-11.40934 4.76466,-23.83428c2.1557,2.64834 2.354,12.99137 2.354,12.99137s6.89608,-15.53197 -1.64623,-38.44095z"/>
   <path fill="url(#svg_26)" d="m243.89144,91.29835c-2.0824,-6.83673 -5.75708,-11.19386 -8.98703,-14.72075c-8.05307,-8.79744 -13.23233,-10.03328 -13.23233,-10.03328s-7.43208,2.43524 -6.15548,6.0778c0.06565,0.18696 0.21899,0.42383 0.43528,0.69476c-6.51926,-5.29034 -10.21732,6.87396 -10.21732,6.87396c-3.72504,-0.39848 -8.26082,2.83213 -9.58329,11.48618c-0.13715,0.89836 1.66871,0.39293 2.59772,0.74863c5.43152,2.08033 10.54467,6.59114 12.89418,8.82041c5.46524,5.18736 8.70779,13.82477 10.57975,20.30342c2.26497,7.83808 3.18993,21.63036 3.18993,21.63036s5.95943,-14.42209 4.53533,-21.82683c2.3603,2.58259 2.82615,11.79672 2.82615,11.79672s3.9728,-10.96253 2.79827,-20.51098c3.06448,3.29003 3.16655,9.98257 3.16655,9.98257s3.12023,-7.62973 1.71008,-20.14339c3.08381,4.31989 3.72908,9.91603 3.72908,9.91603s2.52083,-11.87753 -0.28689,-21.09562z"/>
  </g>
  <g>
   <path fill="url(#svg_57)" d="m47.51731,12.32042c-2.92416,-1.94443 -6.6638,-2.57382 -8.72771,-2.79368c-2.2089,-0.23505 -4.12742,-0.19358 -5.81484,0.05851c-0.14297,-0.00185 -0.28514,-0.0076 -0.42891,-0.0076c-0.1097,0 -0.21778,0.00472 -0.32809,0.00595c0.04537,-0.05645 0.07683,-0.09135 0.07683,-0.09135s-0.08873,0.01416 -0.26295,0.09443c-0.54789,0.00903 -1.09316,0.02833 -1.63036,0.06569c0.74833,-0.83509 1.36135,-1.27275 1.36135,-1.27275s-0.72756,0.10839 -2.05524,1.33351c-0.63157,0.05912 -1.25448,0.13754 -1.8669,0.23505c1.39503,-1.92185 2.85439,-2.73106 2.85439,-2.73106s-1.76889,-0.36663 -4.53859,2.46666a12.2044,12.42404 0 0 0 -0.65456,0.73327c-8.07234,1.98856 -13.84968,7.29529 -13.84968,13.53195c0,1.22307 -0.36882,2.56828 0.02884,3.91143c-0.1589,2.14581 0.17947,8.00085 0.17947,8.00085s2.18531,12.03955 10.58876,14.13281c0.13349,0.03243 -1.75579,-3.00122 -2.59143,-6.65974c1.62713,1.68495 3.56622,3.01743 5.74265,3.24837c0.26719,0.02812 -1.24319,-1.77363 -2.56603,-3.94838l19.09607,6.54971c9.98764,-4.36716 8.82491,-3.97363 10.96928,-6.33807c4.72431,-5.20594 5.38573,-8.15994 4.19558,-16.88132c-0.8052,-5.88727 -5.07357,-11.71808 -9.77792,-13.64424z"/>
   <path d="m14.0027,17.81867l-2.85156,16.50545l1.58116,4.98711l31.56342,10.68305l5.85356,-25.33666l-36.14657,-6.83895z" fill="#fbfbfb"/>
   <path d="m14.09163,18.37991c0.1583,0.34672 0.11172,0.42883 0.01311,0.42883c-0.04436,0 -0.09921,-0.01663 -0.15063,-0.03305c-0.05142,-0.01663 -0.09962,-0.03305 -0.13067,-0.03305c-0.08732,0 -0.03811,0.13117 0.45634,0.76365c0.69933,0.90447 10.96968,16.68795 11.53088,16.68795a0.02521,0.02566 0 0 0 0.00807,-0.00123c4.78118,-1.73422 25.11438,-8.83901 25.11438,-8.83901l-2.08024,-3.08518l-34.76122,-5.88891" fill="#999"/>
   <path fill="#f8f8f8" d="m14.38988,17.99214s0.15326,0.80717 0.86327,1.70055c0.70578,0.9016 10.18546,15.51333 10.66115,15.38461c6.20988,-1.67838 28.74049,-10.60771 28.74049,-10.60771l-40.26492,-6.47745z"/>
   <path d="m43.16848,49.61369l-29.99638,-10.15281l0.10607,0.71335l30.22405,10.23l-0.33373,-0.79054z" fill="#999"/>
   <path fill="url(#svg_56)" d="m21.06396,17.30937s-10.91382,3.25371 -5.90599,14.58176c0,0 -2.29621,-2.14026 -3.66342,-4.87687c-0.0615,-0.12255 2.27887,-8.58672 2.27887,-8.58672l7.29054,-1.11817z"/>
   <path fill="url(#svg_55)" d="m15.15797,31.89113c-0.94918,-0.01663 -2.47407,-0.81374 -2.96872,-1.77876c-0.61827,10.48947 3.58578,16.61528 10.26007,19.88213c-2.18087,-0.25455 -13.02149,-6.07818 -13.02149,-20.09213c0,-11.91597 9.2881,-22.567 23.8236,-23.05496c0.08913,0.66799 -7.20625,2.34308 -7.43956,3.13075c-0.36217,1.22594 -1.19459,2.56048 -1.89674,3.6302c-0.9514,1.44949 1.32223,2.68898 -0.34866,3.07943c-2.5142,0.58731 -5.86768,0.26214 -8.34054,3.53474c-3.71726,4.91957 -1.23673,10.54716 -0.06796,11.66861z"/>
   <path fill="url(#svg_54)" d="m37.06386,7.23087c-9.41353,-0.73532 -14.25823,3.09913 -17.36831,7.55785c-1.13268,1.62296 -1.00866,3.1133 -0.61867,4.91382c0.16757,0.76857 0.33696,1.13685 0.13289,1.92041c-0.11252,0.43232 -0.09377,0.83591 -0.23351,1.09087c-0.19338,0.35247 -0.4396,0.73778 -0.52208,1.37066c-0.20609,1.58046 0.34341,2.08381 0.68683,2.61549c0.48921,-0.49452 1.44484,-1.65847 3.16796,-2.35376c1.72312,-0.69529 2.85681,-1.74017 5.0163,-2.86183c2.95058,-1.53202 6.40891,0.79218 12.96624,-1.39509c2.01773,-0.67312 6.65493,-7.66603 7.75575,-7.93454c-3.06572,-3.45119 -8.28125,-4.71306 -10.98339,-4.92388z"/>
   <path fill="#3f6499" d="m30.8447,5.04113s-1.68077,0.82646 -2.41277,2.31989c1.69005,-0.86731 2.67109,-1.3411 3.13489,-1.39756c0,0 -0.44424,0.21904 -0.99515,1.41028c0.97398,-0.31757 1.30933,-0.51772 1.57672,-0.5208c0,0 -0.07764,0.12522 -0.14862,1.31421c-1.49565,-0.4935 -4.37444,0.0815 -5.90579,1.05782c-0.51946,-2.81954 4.75073,-4.18384 4.75073,-4.18384z"/>
   <path fill="url(#svg_53)" d="m37.53391,6.80614c-2.88544,-0.38059 -5.29741,-0.30566 -7.34801,0.09648c0.64488,-0.62919 1.391,-0.93916 1.391,-0.93916c-0.96692,0.08704 -2.17401,0.72957 -3.2097,1.40987a14.46593,14.72628 0 0 0 -1.49021,0.57458c0.28836,-0.38696 0.62391,-0.80039 0.9518,-1.11776c1.21778,-1.17893 3.02599,-1.78903 3.02599,-1.78903c-1.54345,-0.11537 -6.70857,1.23066 -9.81663,7.63914c-0.50937,0.63165 -0.98467,1.27993 -1.43758,1.92924c-1.16918,1.67592 -1.04093,3.2143 -0.63762,5.07353c0.17181,0.79382 0.20347,2.06103 0.03388,2.87989c-0.03388,0.16402 -0.4765,0.58772 -0.59003,1.73011c-0.12139,1.21219 0.30349,1.8073 0.72232,2.29977c1.48819,-2.2154 2.95642,-2.65449 2.95642,-2.65449c2.08307,-0.86875 2.95017,-1.79662 5.18004,-2.95462c3.04656,-1.58251 13.70005,3.58216 20.47013,1.32365c2.08347,-0.69467 -0.80197,-9.72193 0.33535,-9.99905c-3.16574,-3.56369 -7.7624,-5.13614 -10.53714,-5.50216z"/>
   <path fill="url(#svg_52)" d="m58.66646,26.23768c-1.66887,-8.87575 -9.69867,-16.9505 -16.15578,-17.39801c-2.86568,-0.19871 -1.98567,1.29717 -3.77876,1.86683c-7.72732,2.45496 -7.84548,3.88824 -7.84548,3.88824c16.38465,0.78397 16.63309,17.25678 12.24513,21.42441c1.23472,-0.29314 2.57349,-1.82988 3.80296,-4.24235c-0.14761,1.01224 -0.27425,2.25399 -0.45856,3.63944c-0.56221,4.22777 0.16596,13.05878 -11.76762,18.96903c0,0 6.52789,-0.54317 9.76501,-4.25282c-1.31639,3.08169 -4.92858,4.74631 -4.92858,4.74631c2.65818,-0.39578 9.641,-2.49335 14.08904,-8.15624c5.03445,-6.40991 6.54846,-12.42343 5.03264,-20.48483z"/>
   <path fill="url(#svg_51)" d="m42.69903,42.44116s5.32281,-1.51498 7.03827,-4.44085c-0.20811,3.41157 -3.24801,6.91018 -3.24801,6.91018s4.44401,-0.91556 6.33914,-4.09906c-0.24682,2.87271 -3.66826,6.7552 -3.66826,6.7552c3.49786,-0.63904 12.28667,-6.29085 9.50649,-21.32895c-1.64185,-8.88089 -9.69867,-16.9505 -16.15578,-17.39801c-2.86568,-0.19871 -1.98567,1.29717 -3.77876,1.86683c-7.72732,2.45496 -7.84548,3.88824 -7.84548,3.88824c16.38465,0.78397 20.73873,9.51356 12.24513,21.19141c1.23472,-0.29335 1.72977,-0.98412 2.65737,-2.1146c-0.0004,0 0.42024,4.47103 -3.09012,8.76962z"/>
   <path fill="url(#svg_50)" d="m21.64976,22.59989s-0.9516,0.67763 -1.64064,0.50499c-0.81568,-0.20384 -0.95382,-1.00855 -0.95382,-1.00855c-0.01795,0.16484 -0.03872,0.32393 -0.06876,0.4666c-0.03388,0.16402 -0.4765,0.58772 -0.59003,1.73011c-0.12139,1.21219 0.32567,1.91425 0.7445,2.40672c1.4884,-2.2154 2.93444,-2.76145 2.93444,-2.76145c-0.56644,-0.20159 -0.42569,-1.33844 -0.42569,-1.33844z"/>
   <defs transform="translate(0.0953288) translate(0.0953288) translate(0.0953288) translate(0.0953288) translate(0.0953288) translate(0.0953288) translate(-0.0953288) translate(-0.0953288) translate(-0.114944) translate(0.114944) translate(-0.114944) translate(0.114944) translate(0, 0.0990099) translate(0, 0.0990099) translate(0.0990099) translate(0.0990099) translate(0.0990099) translate(0.0990099) translate(0.0990099) translate(-0.0990099) translate(-0.0990099) translate(-0.0990099) translate(-0.0990099) translate(-0.0990099) translate(-0.0990099) translate(-0.0990099) translate(-0.0990099) translate(-0.0990099) translate(-0.0990099) translate(-0.0990099) translate(-0.0990099) translate(-0.0990099) translate(-0.0990099) translate(-0.0990099) translate(-0.0990099) translate(-0.0990099) translate(-0.0990099) translate(-0.0990099) translate(-0.0990099) translate(-0.0990099) translate(-0.0990099) translate(-0.0990099) translate(0.594059, 15.5446) translate(8.41584, -15.9406) translate(-8.31683, 14.7525) translate(3.06931, -11.9802) translate(-25.2272, -15.9091) translate(-37.2726, -12.2727) translate(-13.8636, -18.1818) translate(-23.8636, -33.409) translate(-44.7726, -46.1363) translate(-32.0454, -42.0454) translate(-24.9999, -28.1818) translate(26.8181, -4.77272) translate(12.0454, 32.7272) translate(10.2273, 70.4544) translate(-37.4785) translate(0, -91.4043) translate(258.57, 249.812) scale(0.916254, 0.897038) translate(-258.57, -249.812) translate(254.919, 247.072) scale(0.870433, 0.813223) translate(-254.919, -247.072) translate(252.682, 246.179) scale(0.74383, 0.722847) translate(-252.682, -246.179) translate(264.237, 253.075) scale(0.771958, 0.755039) translate(-264.237, -253.075) translate(290.186, 251.266) scale(0.867372, 0.741383) translate(-290.186, -251.266) translate(299.656, 277.325) scale(0.719668, 0.920725) translate(-299.656, -277.325) translate(285.991, 256.043) scale(0.700609, 0.776132) translate(-285.991, -256.043) translate(35.2831, 11.6669) scale(1.06892, 1.06213) translate(-35.2831, -11.6669) translate(47.3499, -42.4908) scale(0.941943, 1) translate(-47.3499, 42.4908) translate(9.02699, 23.3464) scale(1, 0.916282) translate(-9.02699, -23.3464)">
    <filter height="6.629" width="14.927" y="18.355" x="162.68" filterUnits="userSpaceOnUse" id="svg_48"/>
   </defs>
   <mask id="svg_46" height="6.629" width="14.927" y="18.355" x="162.68" maskUnits="userSpaceOnUse">
    <g filter="url(#svg_48)">
     <path d="m91.295,-7.218l100.015,0l0,93.339l-100.015,0l0,-93.339z" fill="url(#svg_49)"/>
    </g>
   </mask>
   <g mask="url(#svg_46)" opacity="0.6">
    <g opacity="0.2">
     <path fill="url(#svg_47)" d="m42.40059,8.81872c0.22303,-0.05892 1.13349,0.04188 1.73098,0.3147c0.5977,0.27282 1.62794,0.75523 0.80379,0.96503c-0.82435,0.2098 -1.29824,-0.12584 -1.71041,-0.48262s-1.38071,-0.65033 -0.82435,-0.79711z"/>
    </g>
   </g>
   <path fill="url(#svg_45)" d="m21.73889,22.46727s5.22037,-8.75772 9.93984,-11.12112c0.43819,-0.22437 -6.53454,1.88674 -9.34053,5.03966c-1.66787,1.87401 -0.78463,5.54301 -0.59931,6.08146z"/>
   <path fill="#f2f2f2" opacity="0.1" d="m21.73889,22.46727l0.01512,-0.00924c1.34986,-0.84904 3.66322,-1.33802 4.40893,-2.87702c2.87092,-5.92627 5.516,-8.23487 5.516,-8.23487c-4.71967,2.36341 -9.94005,11.12112 -9.94005,11.12112z"/>
   <path fill="#2f4282" d="m22.23516,20.86546s-0.94091,-1.46961 0.41399,-2.80969c0.71506,-0.70617 1.79854,-0.31388 1.92376,-0.18681c0.53317,0.53825 0.19802,1.67428 -0.28191,2.31722c-0.27122,0.36212 -1.06049,0.92582 -2.05584,0.67928z"/>
   <path fill="url(#svg_44)" d="m22.77458,20.77432s-0.65013,-1.01594 0.28675,-1.94176c0.49324,-0.48775 1.24238,-0.21678 1.32929,-0.12933c0.36822,0.37197 0.13632,1.15717 -0.1952,1.6012c-0.18733,0.25106 -0.73301,0.64027 -1.42084,0.46989z"/>
   <path d="m24.07241,19.69023c-0.01452,0.40605 -0.35208,0.723 -0.75378,0.70904c-0.4025,-0.01416 -0.71748,-0.35432 -0.70316,-0.76036c0.01432,-0.40584 0.35168,-0.7228 0.75438,-0.70884c0.40169,0.01416 0.71647,0.35452 0.70256,0.76016z"/>
   <circle fill="#fff" r="0.15499" cy="19.46318" cx="22.88307"/>
   <path fill="url(#svg_43)" d="m55.50637,18.37991c-3.57348,-5.53767 -6.40468,-6.94488 -6.40468,-6.94488s0.13007,4.03378 2.11412,5.97944c0.22666,0.22232 -2.37425,-1.73093 -2.37425,-1.73093s-0.55616,1.86313 0.71829,4.00504c-0.37023,-0.50068 -0.61524,-0.69036 -0.61524,-0.69036s-2.40128,1.1272 -3.11008,2.69103c-0.366,-0.70329 -0.64045,-1.11755 -0.64045,-1.11755s-1.66081,3.37421 -1.4521,7.28647c0.33958,6.36126 -1.17019,8.70476 -1.17019,8.70476s4.04454,-1.57964 5.98423,-6.66508c0.80137,2.16223 -0.0244,4.43798 -0.0244,4.43798s3.26798,-2.48575 3.97073,-7.01652c0.77898,1.2789 0.54991,3.83137 0.54991,3.83137s2.08589,-2.95646 2.13671,-6.1761c0.96672,0.68626 1.05565,3.36641 1.05565,3.36641s3.09254,-4.02475 -0.73825,-9.96108z"/>
   <path fill="url(#svg_42)" d="m52.03331,14.50995c-0.93385,-1.77158 -2.58175,-2.90063 -4.03022,-3.81454c-3.61139,-2.27965 -5.93402,-2.59989 -5.93402,-2.59989s-3.33291,0.63104 -2.76042,1.57492c0.02944,0.04845 0.0982,0.10983 0.1952,0.18003c-2.92355,-1.37087 -4.58194,1.78123 -4.58194,1.78123c-1.67049,-0.10326 -3.70455,0.73388 -4.29761,2.97638c-0.0615,0.23279 0.74833,0.10182 1.16495,0.19399c2.43576,0.53907 4.72875,1.70794 5.78238,2.2856c2.45088,1.34418 3.905,3.58237 4.74447,5.26116c1.01572,2.03105 1.43052,5.60501 1.43052,5.60501s2.6725,-3.73715 2.03386,-5.65591c1.05847,0.66922 1.26738,3.05685 1.26738,3.05685s1.7816,-2.84068 1.25488,-5.31494c1.37426,0.85253 1.42004,2.58675 1.42004,2.58675s1.39927,-1.97707 0.76688,-5.21969c1.38293,1.1194 1.6723,2.56951 1.6723,2.56951s1.13046,-3.07779 -0.12865,-5.46644z"/>
  </g>
 </g>
</svg>